<svg xmlns="http://www.w3.org/2000/svg" width="1780" height="1560" viewBox="0 0 1780 1560">
<rect width="100%" height="100%" fill="#f0f3f8"/>
<pattern id="dots" x="0" y="0" width="24" height="24" patternUnits="userSpaceOnUse">
<circle cx="12" cy="12" r="0.9" fill="#c8d4e4" opacity="0.7"/>
</pattern>
<rect width="100%" height="100%" fill="url(#dots)"/>
<defs>
<marker id="arr-timescale" viewBox="0 0 10 10" refX="8" refY="5" markerWidth="5" markerHeight="5" orient="auto-start-reverse">
  <path d="M1 1.5L8 5L1 8.5" fill="none" stroke="#0077bb" stroke-width="1.6" stroke-linecap="round" stroke-linejoin="round"/>
</marker>
<marker id="arr-config" viewBox="0 0 10 10" refX="8" refY="5" markerWidth="5" markerHeight="5" orient="auto-start-reverse">
  <path d="M1 1.5L8 5L1 8.5" fill="none" stroke="#087878" stroke-width="1.6" stroke-linecap="round" stroke-linejoin="round"/>
</marker>
<marker id="arr-prod" viewBox="0 0 10 10" refX="8" refY="5" markerWidth="5" markerHeight="5" orient="auto-start-reverse">
  <path d="M1 1.5L8 5L1 8.5" fill="none" stroke="#1a58c0" stroke-width="1.6" stroke-linecap="round" stroke-linejoin="round"/>
</marker>
<marker id="arr-ml" viewBox="0 0 10 10" refX="8" refY="5" markerWidth="5" markerHeight="5" orient="auto-start-reverse">
  <path d="M1 1.5L8 5L1 8.5" fill="none" stroke="#6030b8" stroke-width="1.6" stroke-linecap="round" stroke-linejoin="round"/>
</marker>
<marker id="arr-omni" viewBox="0 0 10 10" refX="8" refY="5" markerWidth="5" markerHeight="5" orient="auto-start-reverse">
  <path d="M1 1.5L8 5L1 8.5" fill="none" stroke="#b06000" stroke-width="1.6" stroke-linecap="round" stroke-linejoin="round"/>
</marker>
<marker id="arr-alert" viewBox="0 0 10 10" refX="8" refY="5" markerWidth="5" markerHeight="5" orient="auto-start-reverse">
  <path d="M1 1.5L8 5L1 8.5" fill="none" stroke="#b52030" stroke-width="1.6" stroke-linecap="round" stroke-linejoin="round"/>
</marker>
</defs>
<g id="relations">
<path d="M298,279.0 H316 H394.0 V149.0 H472 H490" fill="none" stroke="#087878" stroke-width="1.5"  stroke-linejoin="miter" marker-end="url(#arr-config)" opacity="0.55"/>
<text x="320" y="275.0" text-anchor="middle" font-size="8" font-family="IBM Plex Mono,monospace" font-weight="700" fill="#087878" opacity="0.75">1:N</text>
<path d="M298,279.0 H316 H394.0 V389.0 H472 H490" fill="none" stroke="#087878" stroke-width="1.5"  stroke-linejoin="miter" marker-end="url(#arr-config)" opacity="0.55"/>
<text x="320" y="275.0" text-anchor="middle" font-size="8" font-family="IBM Plex Mono,monospace" font-weight="700" fill="#087878" opacity="0.75">1:N</text>
<path d="M609.0,243 V261 V269.0 H609.0 V277 V295" fill="none" stroke="#1a58c0" stroke-width="1.5"  stroke-linejoin="miter" marker-end="url(#arr-prod)" opacity="0.55"/>
<text x="615.0" y="257" text-anchor="middle" font-size="8" font-family="IBM Plex Mono,monospace" font-weight="700" fill="#1a58c0" opacity="0.75">1:N</text>
<path d="M728,389.0 H746 H819.0 V304.0 H892 H910" fill="none" stroke="#1a58c0" stroke-width="1.5"  stroke-linejoin="miter" marker-end="url(#arr-prod)" opacity="0.55"/>
<text x="750" y="385.0" text-anchor="middle" font-size="8" font-family="IBM Plex Mono,monospace" font-weight="700" fill="#1a58c0" opacity="0.75">1:N</text>
<path d="M609.0,483 V501 V521.5 H609.0 V542 V560" fill="none" stroke="#1a58c0" stroke-width="1.5"  stroke-linejoin="miter" marker-end="url(#arr-prod)" opacity="0.55"/>
<text x="615.0" y="497" text-anchor="middle" font-size="8" font-family="IBM Plex Mono,monospace" font-weight="700" fill="#1a58c0" opacity="0.75">1:1</text>
<path d="M609.0,483 V501 V636.5 H609.0 V772 V790" fill="none" stroke="#1a58c0" stroke-width="1.5"  stroke-linejoin="miter" marker-end="url(#arr-prod)" opacity="0.55"/>
<text x="615.0" y="497" text-anchor="middle" font-size="8" font-family="IBM Plex Mono,monospace" font-weight="700" fill="#1a58c0" opacity="0.75">1:N</text>
<path d="M298,584.0 H316 H394.0 V874.0 H472 H490" fill="none" stroke="#087878" stroke-width="1.5"  stroke-linejoin="miter" marker-end="url(#arr-config)" opacity="0.55"/>
<text x="320" y="580.0" text-anchor="middle" font-size="8" font-family="IBM Plex Mono,monospace" font-weight="700" fill="#087878" opacity="0.75">1:N</text>
<path d="M728,389.0 H746 H819.0 V724.0 H892 H910" fill="none" stroke="#1a58c0" stroke-width="1.5"  stroke-linejoin="miter" marker-end="url(#arr-prod)" opacity="0.55"/>
<text x="750" y="385.0" text-anchor="middle" font-size="8" font-family="IBM Plex Mono,monospace" font-weight="700" fill="#1a58c0" opacity="0.75">1:1</text>
<path d="M1029.0,808 V826 V869.0 H1029.0 V912 V930" fill="none" stroke="#6030b8" stroke-width="1.5"  stroke-linejoin="miter" marker-end="url(#arr-ml)" opacity="0.55"/>
<text x="1035.0" y="822" text-anchor="middle" font-size="8" font-family="IBM Plex Mono,monospace" font-weight="700" fill="#6030b8" opacity="0.75">1:N</text>
<path d="M1029.0,808 V826 V1014.0 H1029.0 V1202 V1220" fill="none" stroke="#6030b8" stroke-width="1.5" stroke-dasharray="5 3" stroke-linejoin="miter" marker-end="url(#arr-ml)" opacity="0.55"/>
<text x="1035.0" y="822" text-anchor="middle" font-size="8" font-family="IBM Plex Mono,monospace" font-weight="700" fill="#6030b8" opacity="0.75">1:N</text>
<path d="M1148,724.0 H1166 H1264.0 V994.0 H1362 H1380" fill="none" stroke="#6030b8" stroke-width="1.5" stroke-dasharray="5 3" stroke-linejoin="miter" marker-end="url(#arr-ml)" opacity="0.55"/>
<text x="1170" y="720.0" text-anchor="middle" font-size="8" font-family="IBM Plex Mono,monospace" font-weight="700" fill="#6030b8" opacity="0.75">1:N</text>
<path d="M728,389.0 H746 H1054.0 V624.0 H1362 H1380" fill="none" stroke="#1a58c0" stroke-width="1.5" stroke-dasharray="5 3" stroke-linejoin="miter" marker-end="url(#arr-prod)" opacity="0.55"/>
<text x="750" y="385.0" text-anchor="middle" font-size="8" font-family="IBM Plex Mono,monospace" font-weight="700" fill="#1a58c0" opacity="0.75">1:N</text>
<path d="M1499.0,718 V736 V809.0 H1499.0 V882 V900" fill="none" stroke="#b06000" stroke-width="1.5"  stroke-linejoin="miter" marker-end="url(#arr-omni)" opacity="0.55"/>
<text x="1505.0" y="732" text-anchor="middle" font-size="8" font-family="IBM Plex Mono,monospace" font-weight="700" fill="#b06000" opacity="0.75">1:1</text>
<path d="M1499.0,900 V882 V571.5 H609.0 V261 V243" fill="none" stroke="#b06000" stroke-width="1.5" stroke-dasharray="5 3" stroke-linejoin="miter" marker-end="url(#arr-omni)" opacity="0.55"/>
<text x="1505.0" y="894" text-anchor="middle" font-size="8" font-family="IBM Plex Mono,monospace" font-weight="700" fill="#b06000" opacity="0.75">N:1</text>
<path d="M1380,994.0 H1362 H1264.0 V1024.0 H1166 H1148" fill="none" stroke="#b06000" stroke-width="1.5" stroke-dasharray="5 3" stroke-linejoin="miter" marker-end="url(#arr-omni)" opacity="0.55"/>
<text x="1358" y="990.0" text-anchor="middle" font-size="8" font-family="IBM Plex Mono,monospace" font-weight="700" fill="#b06000" opacity="0.75">1:N</text>
<path d="M298,584.0 H316 H839.0 V269.0 H1362 H1380" fill="none" stroke="#087878" stroke-width="1.5" stroke-dasharray="5 3" stroke-linejoin="miter" marker-end="url(#arr-config)" opacity="0.55"/>
<text x="320" y="580.0" text-anchor="middle" font-size="8" font-family="IBM Plex Mono,monospace" font-weight="700" fill="#087878" opacity="0.75">1:N</text>
<path d="M1029.0,930 V912 V646.5 H1499.0 V381 V363" fill="none" stroke="#6030b8" stroke-width="1.5" stroke-dasharray="5 3" stroke-linejoin="miter" marker-end="url(#arr-ml)" opacity="0.55"/>
<text x="1035.0" y="924" text-anchor="middle" font-size="8" font-family="IBM Plex Mono,monospace" font-weight="700" fill="#6030b8" opacity="0.75">1:N</text>
</g>
<g id="tables">
<rect x="912" y="213" width="238" height="188" rx="7" fill="rgba(0,0,0,0.07)"/>
<rect x="910" y="210" width="238" height="188" rx="7" fill="white" stroke="#0077bb" stroke-width="1.2" stroke-opacity="0.35"/>
<rect x="910" y="210" width="238" height="36" rx="7" fill="#e8f4fb"/>
<rect x="910" y="242" width="238" height="4" fill="#e8f4fb"/>
<line x1="910" y1="246" x2="1148" y2="246" stroke="#0077bb" stroke-width="0.8" stroke-opacity="0.3"/>
<rect x="920" y="220" width="16" height="16" rx="3" fill="#0077bb" fill-opacity="0.15"/>
<text x="928" y="231" text-anchor="middle" font-size="8" font-family="IBM Plex Mono,monospace" font-weight="700" fill="#0077bb">TS</text>
<text x="940" y="232" font-size="10.5" font-family="Sora,sans-serif" font-weight="600" fill="#18243a">arm_telemetry_raw</text>
<text x="1144" y="232" text-anchor="end" font-size="8" font-family="IBM Plex Mono,monospace" font-weight="600" fill="#0077bb" opacity="0.8">TimescaleDB</text>
<rect x="911" y="252" width="236" height="20" fill="#f7f9fc" opacity="0.6"/>
<text x="920" y="266" font-size="9" fill="#c09000">🔑</text>
<text x="934" y="266" font-size="9.5" font-family="IBM Plex Mono,monospace" font-weight="600" fill="#18243a">telemetry_id</text>
<text x="1142" y="266" text-anchor="end" font-size="8.5" font-family="IBM Plex Mono,monospace" fill="#8898b0">BIGSERIAL</text>
<text x="920" y="286" font-size="9" fill="#0077bb">🔗</text>
<text x="934" y="286" font-size="9.5" font-family="IBM Plex Mono,monospace" font-weight="400" fill="#1a58c0">part_uuid</text>
<text x="1142" y="286" text-anchor="end" font-size="8.5" font-family="IBM Plex Mono,monospace" fill="#8898b0">UUID FK</text>
<rect x="911" y="292" width="236" height="20" fill="#f7f9fc" opacity="0.6"/>
<text x="934" y="306" font-size="9.5" font-family="IBM Plex Mono,monospace" font-weight="400" fill="#4a5e78">arm_id</text>
<text x="1142" y="306" text-anchor="end" font-size="8.5" font-family="IBM Plex Mono,monospace" fill="#8898b0">VARCHAR(8)</text>
<text x="934" y="326" font-size="9.5" font-family="IBM Plex Mono,monospace" font-weight="400" fill="#4a5e78">seq_num</text>
<text x="1142" y="326" text-anchor="end" font-size="8.5" font-family="IBM Plex Mono,monospace" fill="#8898b0">BIGINT</text>
<rect x="911" y="332" width="236" height="20" fill="#f7f9fc" opacity="0.6"/>
<text x="920" y="346" font-size="9" fill="#0077bb" font-weight="700">◆</text>
<text x="934" y="346" font-size="9.5" font-family="IBM Plex Mono,monospace" font-weight="400" fill="#4a5e78">sim_timestamp</text>
<text x="1142" y="346" text-anchor="end" font-size="8.5" font-family="IBM Plex Mono,monospace" fill="#8898b0">TIMESTAMPTZ</text>
<text x="934" y="366" font-size="9.5" font-family="IBM Plex Mono,monospace" font-weight="400" fill="#4a5e78">pos_x / pos_y / pos_z</text>
<text x="1142" y="366" text-anchor="end" font-size="8.5" font-family="IBM Plex Mono,monospace" fill="#8898b0">FLOAT4</text>
<text x="934" y="384" font-size="8.5" font-family="IBM Plex Mono,monospace" fill="#8898b0">+4 more columns…</text>
<rect x="62" y="188" width="238" height="188" rx="7" fill="rgba(0,0,0,0.07)"/>
<rect x="60" y="185" width="238" height="188" rx="7" fill="white" stroke="#087878" stroke-width="1.2" stroke-opacity="0.35"/>
<rect x="60" y="185" width="238" height="36" rx="7" fill="#e6f4f4"/>
<rect x="60" y="217" width="238" height="4" fill="#e6f4f4"/>
<line x1="60" y1="221" x2="298" y2="221" stroke="#087878" stroke-width="0.8" stroke-opacity="0.3"/>
<rect x="70" y="195" width="16" height="16" rx="3" fill="#087878" fill-opacity="0.15"/>
<text x="78" y="206" text-anchor="middle" font-size="8" font-family="IBM Plex Mono,monospace" font-weight="700" fill="#087878">R</text>
<text x="90" y="207" font-size="10.5" font-family="Sora,sans-serif" font-weight="600" fill="#18243a">recipe_master</text>
<text x="294" y="207" text-anchor="end" font-size="8" font-family="IBM Plex Mono,monospace" font-weight="600" fill="#087878" opacity="0.8">PostgreSQL</text>
<rect x="61" y="227" width="236" height="20" fill="#f7f9fc" opacity="0.6"/>
<text x="70" y="241" font-size="9" fill="#c09000">🔑</text>
<text x="84" y="241" font-size="9.5" font-family="IBM Plex Mono,monospace" font-weight="600" fill="#18243a">recipe_id</text>
<text x="292" y="241" text-anchor="end" font-size="8.5" font-family="IBM Plex Mono,monospace" fill="#8898b0">SERIAL</text>
<text x="84" y="261" font-size="9.5" font-family="IBM Plex Mono,monospace" font-weight="400" fill="#4a5e78">recipe_code</text>
<text x="292" y="261" text-anchor="end" font-size="8.5" font-family="IBM Plex Mono,monospace" fill="#8898b0">VARCHAR(64)</text>
<rect x="61" y="267" width="236" height="20" fill="#f7f9fc" opacity="0.6"/>
<text x="84" y="281" font-size="9.5" font-family="IBM Plex Mono,monospace" font-weight="400" fill="#4a5e78">target_qc</text>
<text x="292" y="281" text-anchor="end" font-size="8.5" font-family="IBM Plex Mono,monospace" fill="#8898b0">FLOAT4</text>
<text x="84" y="301" font-size="9.5" font-family="IBM Plex Mono,monospace" font-weight="400" fill="#4a5e78">target_thickness_mm</text>
<text x="292" y="301" text-anchor="end" font-size="8.5" font-family="IBM Plex Mono,monospace" fill="#8898b0">FLOAT4</text>
<rect x="61" y="307" width="236" height="20" fill="#f7f9fc" opacity="0.6"/>
<text x="84" y="321" font-size="9.5" font-family="IBM Plex Mono,monospace" font-weight="400" fill="#4a5e78">stp_ms</text>
<text x="292" y="321" text-anchor="end" font-size="8.5" font-family="IBM Plex Mono,monospace" fill="#8898b0">INT</text>
<text x="84" y="341" font-size="9.5" font-family="IBM Plex Mono,monospace" font-weight="400" fill="#4a5e78">qc_lower_bound</text>
<text x="292" y="341" text-anchor="end" font-size="8.5" font-family="IBM Plex Mono,monospace" fill="#8898b0">FLOAT4</text>
<text x="84" y="359" font-size="8.5" font-family="IBM Plex Mono,monospace" fill="#8898b0">+1 more columns…</text>
<rect x="62" y="493" width="238" height="188" rx="7" fill="rgba(0,0,0,0.07)"/>
<rect x="60" y="490" width="238" height="188" rx="7" fill="white" stroke="#087878" stroke-width="1.2" stroke-opacity="0.35"/>
<rect x="60" y="490" width="238" height="36" rx="7" fill="#e6f4f4"/>
<rect x="60" y="522" width="238" height="4" fill="#e6f4f4"/>
<line x1="60" y1="526" x2="298" y2="526" stroke="#087878" stroke-width="0.8" stroke-opacity="0.3"/>
<rect x="70" y="500" width="16" height="16" rx="3" fill="#087878" fill-opacity="0.15"/>
<text x="78" y="511" text-anchor="middle" font-size="8" font-family="IBM Plex Mono,monospace" font-weight="700" fill="#087878">C</text>
<text x="90" y="512" font-size="10.5" font-family="Sora,sans-serif" font-weight="600" fill="#18243a">component_master</text>
<text x="294" y="512" text-anchor="end" font-size="8" font-family="IBM Plex Mono,monospace" font-weight="600" fill="#087878" opacity="0.8">PostgreSQL</text>
<rect x="61" y="532" width="236" height="20" fill="#f7f9fc" opacity="0.6"/>
<text x="70" y="546" font-size="9" fill="#c09000">🔑</text>
<text x="84" y="546" font-size="9.5" font-family="IBM Plex Mono,monospace" font-weight="600" fill="#18243a">component_id</text>
<text x="292" y="546" text-anchor="end" font-size="8.5" font-family="IBM Plex Mono,monospace" fill="#8898b0">SERIAL</text>
<text x="84" y="566" font-size="9.5" font-family="IBM Plex Mono,monospace" font-weight="400" fill="#4a5e78">arm_id</text>
<text x="292" y="566" text-anchor="end" font-size="8.5" font-family="IBM Plex Mono,monospace" fill="#8898b0">VARCHAR(8)</text>
<rect x="61" y="572" width="236" height="20" fill="#f7f9fc" opacity="0.6"/>
<text x="84" y="586" font-size="9.5" font-family="IBM Plex Mono,monospace" font-weight="400" fill="#4a5e78">component_type</text>
<text x="292" y="586" text-anchor="end" font-size="8.5" font-family="IBM Plex Mono,monospace" fill="#8898b0">ENUM</text>
<text x="84" y="606" font-size="9.5" font-family="IBM Plex Mono,monospace" font-weight="400" fill="#4a5e78">serial_no</text>
<text x="292" y="606" text-anchor="end" font-size="8.5" font-family="IBM Plex Mono,monospace" fill="#8898b0">VARCHAR(64)</text>
<rect x="61" y="612" width="236" height="20" fill="#f7f9fc" opacity="0.6"/>
<text x="84" y="626" font-size="9.5" font-family="IBM Plex Mono,monospace" font-weight="400" fill="#4a5e78">installed_at</text>
<text x="292" y="626" text-anchor="end" font-size="8.5" font-family="IBM Plex Mono,monospace" fill="#8898b0">TIMESTAMPTZ</text>
<text x="84" y="646" font-size="9.5" font-family="IBM Plex Mono,monospace" font-weight="400" fill="#4a5e78">expected_lifetime_h</text>
<text x="292" y="646" text-anchor="end" font-size="8.5" font-family="IBM Plex Mono,monospace" fill="#8898b0">FLOAT4</text>
<text x="84" y="664" font-size="8.5" font-family="IBM Plex Mono,monospace" fill="#8898b0">+1 more columns…</text>
<rect x="62" y="773" width="238" height="148" rx="7" fill="rgba(0,0,0,0.07)"/>
<rect x="60" y="770" width="238" height="148" rx="7" fill="white" stroke="#087878" stroke-width="1.2" stroke-opacity="0.35"/>
<rect x="60" y="770" width="238" height="36" rx="7" fill="#e6f4f4"/>
<rect x="60" y="802" width="238" height="4" fill="#e6f4f4"/>
<line x1="60" y1="806" x2="298" y2="806" stroke="#087878" stroke-width="0.8" stroke-opacity="0.3"/>
<rect x="70" y="780" width="16" height="16" rx="3" fill="#087878" fill-opacity="0.15"/>
<text x="78" y="791" text-anchor="middle" font-size="8" font-family="IBM Plex Mono,monospace" font-weight="700" fill="#087878">⚙</text>
<text x="90" y="792" font-size="10.5" font-family="Sora,sans-serif" font-weight="600" fill="#18243a">production_line_config</text>
<text x="294" y="792" text-anchor="end" font-size="8" font-family="IBM Plex Mono,monospace" font-weight="600" fill="#087878" opacity="0.8">PostgreSQL</text>
<rect x="61" y="812" width="236" height="20" fill="#f7f9fc" opacity="0.6"/>
<text x="70" y="826" font-size="9" fill="#c09000">🔑</text>
<text x="84" y="826" font-size="9.5" font-family="IBM Plex Mono,monospace" font-weight="600" fill="#18243a">config_id</text>
<text x="292" y="826" text-anchor="end" font-size="8.5" font-family="IBM Plex Mono,monospace" fill="#8898b0">SERIAL</text>
<text x="84" y="846" font-size="9.5" font-family="IBM Plex Mono,monospace" font-weight="400" fill="#4a5e78">config_key</text>
<text x="292" y="846" text-anchor="end" font-size="8.5" font-family="IBM Plex Mono,monospace" fill="#8898b0">VARCHAR(64)</text>
<rect x="61" y="852" width="236" height="20" fill="#f7f9fc" opacity="0.6"/>
<text x="84" y="866" font-size="9.5" font-family="IBM Plex Mono,monospace" font-weight="400" fill="#4a5e78">config_value</text>
<text x="292" y="866" text-anchor="end" font-size="8.5" font-family="IBM Plex Mono,monospace" fill="#8898b0">JSONB</text>
<text x="84" y="886" font-size="9.5" font-family="IBM Plex Mono,monospace" font-weight="400" fill="#4a5e78">description</text>
<text x="292" y="886" text-anchor="end" font-size="8.5" font-family="IBM Plex Mono,monospace" fill="#8898b0">TEXT</text>
<rect x="61" y="892" width="236" height="20" fill="#f7f9fc" opacity="0.6"/>
<text x="84" y="906" font-size="9.5" font-family="IBM Plex Mono,monospace" font-weight="400" fill="#4a5e78">updated_at</text>
<text x="292" y="906" text-anchor="end" font-size="8.5" font-family="IBM Plex Mono,monospace" fill="#8898b0">TIMESTAMPTZ</text>
<rect x="492" y="58" width="238" height="188" rx="7" fill="rgba(0,0,0,0.07)"/>
<rect x="490" y="55" width="238" height="188" rx="7" fill="white" stroke="#1a58c0" stroke-width="1.2" stroke-opacity="0.35"/>
<rect x="490" y="55" width="238" height="36" rx="7" fill="#e8eef9"/>
<rect x="490" y="87" width="238" height="4" fill="#e8eef9"/>
<line x1="490" y1="91" x2="728" y2="91" stroke="#1a58c0" stroke-width="0.8" stroke-opacity="0.3"/>
<rect x="500" y="65" width="16" height="16" rx="3" fill="#1a58c0" fill-opacity="0.15"/>
<text x="508" y="76" text-anchor="middle" font-size="8" font-family="IBM Plex Mono,monospace" font-weight="700" fill="#1a58c0">B</text>
<text x="520" y="77" font-size="10.5" font-family="Sora,sans-serif" font-weight="600" fill="#18243a">batch_run</text>
<text x="724" y="77" text-anchor="end" font-size="8" font-family="IBM Plex Mono,monospace" font-weight="600" fill="#1a58c0" opacity="0.8">PostgreSQL</text>
<rect x="491" y="97" width="236" height="20" fill="#f7f9fc" opacity="0.6"/>
<text x="500" y="111" font-size="9" fill="#c09000">🔑</text>
<text x="514" y="111" font-size="9.5" font-family="IBM Plex Mono,monospace" font-weight="600" fill="#18243a">batch_id</text>
<text x="722" y="111" text-anchor="end" font-size="8.5" font-family="IBM Plex Mono,monospace" fill="#8898b0">UUID</text>
<text x="514" y="131" font-size="9.5" font-family="IBM Plex Mono,monospace" font-weight="400" fill="#4a5e78">batch_no</text>
<text x="722" y="131" text-anchor="end" font-size="8.5" font-family="IBM Plex Mono,monospace" fill="#8898b0">VARCHAR(64)</text>
<rect x="491" y="137" width="236" height="20" fill="#f7f9fc" opacity="0.6"/>
<text x="500" y="151" font-size="9" fill="#1a58c0">🔗</text>
<text x="514" y="151" font-size="9.5" font-family="IBM Plex Mono,monospace" font-weight="400" fill="#1a58c0">recipe_id</text>
<text x="722" y="151" text-anchor="end" font-size="8.5" font-family="IBM Plex Mono,monospace" fill="#8898b0">INT FK</text>
<text x="514" y="171" font-size="9.5" font-family="IBM Plex Mono,monospace" font-weight="400" fill="#4a5e78">start_time</text>
<text x="722" y="171" text-anchor="end" font-size="8.5" font-family="IBM Plex Mono,monospace" fill="#8898b0">TIMESTAMPTZ</text>
<rect x="491" y="177" width="236" height="20" fill="#f7f9fc" opacity="0.6"/>
<text x="514" y="191" font-size="9.5" font-family="IBM Plex Mono,monospace" font-weight="400" fill="#4a5e78">end_time</text>
<text x="722" y="191" text-anchor="end" font-size="8.5" font-family="IBM Plex Mono,monospace" fill="#8898b0">TIMESTAMPTZ</text>
<text x="514" y="211" font-size="9.5" font-family="IBM Plex Mono,monospace" font-weight="400" fill="#4a5e78">status</text>
<text x="722" y="211" text-anchor="end" font-size="8.5" font-family="IBM Plex Mono,monospace" fill="#8898b0">ENUM</text>
<text x="514" y="229" font-size="8.5" font-family="IBM Plex Mono,monospace" fill="#8898b0">+1 more columns…</text>
<rect x="492" y="298" width="238" height="188" rx="7" fill="rgba(0,0,0,0.07)"/>
<rect x="490" y="295" width="238" height="188" rx="7" fill="white" stroke="#1a58c0" stroke-width="1.2" stroke-opacity="0.35"/>
<rect x="490" y="295" width="238" height="36" rx="7" fill="#e8eef9"/>
<rect x="490" y="327" width="238" height="4" fill="#e8eef9"/>
<line x1="490" y1="331" x2="728" y2="331" stroke="#1a58c0" stroke-width="0.8" stroke-opacity="0.3"/>
<rect x="500" y="305" width="16" height="16" rx="3" fill="#1a58c0" fill-opacity="0.15"/>
<text x="508" y="316" text-anchor="middle" font-size="8" font-family="IBM Plex Mono,monospace" font-weight="700" fill="#1a58c0">P</text>
<text x="520" y="317" font-size="10.5" font-family="Sora,sans-serif" font-weight="600" fill="#18243a">part_history</text>
<text x="724" y="317" text-anchor="end" font-size="8" font-family="IBM Plex Mono,monospace" font-weight="600" fill="#1a58c0" opacity="0.8">PostgreSQL</text>
<rect x="491" y="337" width="236" height="20" fill="#f7f9fc" opacity="0.6"/>
<text x="500" y="351" font-size="9" fill="#c09000">🔑</text>
<text x="514" y="351" font-size="9.5" font-family="IBM Plex Mono,monospace" font-weight="600" fill="#18243a">part_uuid</text>
<text x="722" y="351" text-anchor="end" font-size="8.5" font-family="IBM Plex Mono,monospace" fill="#8898b0">UUID</text>
<text x="500" y="371" font-size="9" fill="#1a58c0">🔗</text>
<text x="514" y="371" font-size="9.5" font-family="IBM Plex Mono,monospace" font-weight="400" fill="#1a58c0">batch_id</text>
<text x="722" y="371" text-anchor="end" font-size="8.5" font-family="IBM Plex Mono,monospace" fill="#8898b0">UUID FK</text>
<rect x="491" y="377" width="236" height="20" fill="#f7f9fc" opacity="0.6"/>
<text x="514" y="391" font-size="9.5" font-family="IBM Plex Mono,monospace" font-weight="400" fill="#4a5e78">part_no</text>
<text x="722" y="391" text-anchor="end" font-size="8.5" font-family="IBM Plex Mono,monospace" fill="#8898b0">INT</text>
<text x="500" y="411" font-size="9" fill="#1a58c0">🔗</text>
<text x="514" y="411" font-size="9.5" font-family="IBM Plex Mono,monospace" font-weight="400" fill="#1a58c0">recipe_id</text>
<text x="722" y="411" text-anchor="end" font-size="8.5" font-family="IBM Plex Mono,monospace" fill="#8898b0">INT FK</text>
<rect x="491" y="417" width="236" height="20" fill="#f7f9fc" opacity="0.6"/>
<text x="514" y="431" font-size="9.5" font-family="IBM Plex Mono,monospace" font-weight="400" fill="#4a5e78">cycle_time_ms</text>
<text x="722" y="431" text-anchor="end" font-size="8.5" font-family="IBM Plex Mono,monospace" fill="#8898b0">INT</text>
<text x="514" y="451" font-size="9.5" font-family="IBM Plex Mono,monospace" font-weight="400" fill="#4a5e78">total_qc_score</text>
<text x="722" y="451" text-anchor="end" font-size="8.5" font-family="IBM Plex Mono,monospace" fill="#8898b0">FLOAT4</text>
<text x="514" y="469" font-size="8.5" font-family="IBM Plex Mono,monospace" fill="#8898b0">+1 more columns…</text>
<rect x="492" y="563" width="238" height="168" rx="7" fill="rgba(0,0,0,0.07)"/>
<rect x="490" y="560" width="238" height="168" rx="7" fill="white" stroke="#1a58c0" stroke-width="1.2" stroke-opacity="0.35"/>
<rect x="490" y="560" width="238" height="36" rx="7" fill="#e8eef9"/>
<rect x="490" y="592" width="238" height="4" fill="#e8eef9"/>
<line x1="490" y1="596" x2="728" y2="596" stroke="#1a58c0" stroke-width="0.8" stroke-opacity="0.3"/>
<rect x="500" y="570" width="16" height="16" rx="3" fill="#1a58c0" fill-opacity="0.15"/>
<text x="508" y="581" text-anchor="middle" font-size="8" font-family="IBM Plex Mono,monospace" font-weight="700" fill="#1a58c0">Q</text>
<text x="520" y="582" font-size="10.5" font-family="Sora,sans-serif" font-weight="600" fill="#18243a">qc_result</text>
<text x="724" y="582" text-anchor="end" font-size="8" font-family="IBM Plex Mono,monospace" font-weight="600" fill="#1a58c0" opacity="0.8">PostgreSQL</text>
<rect x="491" y="602" width="236" height="20" fill="#f7f9fc" opacity="0.6"/>
<text x="500" y="616" font-size="9" fill="#c09000">🔑</text>
<text x="514" y="616" font-size="9.5" font-family="IBM Plex Mono,monospace" font-weight="600" fill="#18243a">qc_id</text>
<text x="722" y="616" text-anchor="end" font-size="8.5" font-family="IBM Plex Mono,monospace" fill="#8898b0">UUID</text>
<text x="500" y="636" font-size="9" fill="#1a58c0">🔗</text>
<text x="514" y="636" font-size="9.5" font-family="IBM Plex Mono,monospace" font-weight="400" fill="#1a58c0">part_uuid</text>
<text x="722" y="636" text-anchor="end" font-size="8.5" font-family="IBM Plex Mono,monospace" fill="#8898b0">UUID FK</text>
<rect x="491" y="642" width="236" height="20" fill="#f7f9fc" opacity="0.6"/>
<text x="514" y="656" font-size="9.5" font-family="IBM Plex Mono,monospace" font-weight="400" fill="#4a5e78">qc_score</text>
<text x="722" y="656" text-anchor="end" font-size="8.5" font-family="IBM Plex Mono,monospace" fill="#8898b0">FLOAT4</text>
<text x="514" y="676" font-size="9.5" font-family="IBM Plex Mono,monospace" font-weight="400" fill="#4a5e78">thickness_mm</text>
<text x="722" y="676" text-anchor="end" font-size="8.5" font-family="IBM Plex Mono,monospace" fill="#8898b0">FLOAT4</text>
<rect x="491" y="682" width="236" height="20" fill="#f7f9fc" opacity="0.6"/>
<text x="514" y="696" font-size="9.5" font-family="IBM Plex Mono,monospace" font-weight="400" fill="#4a5e78">pass_fail</text>
<text x="722" y="696" text-anchor="end" font-size="8.5" font-family="IBM Plex Mono,monospace" fill="#8898b0">BOOLEAN</text>
<text x="514" y="716" font-size="9.5" font-family="IBM Plex Mono,monospace" font-weight="400" fill="#4a5e78">measurement_method</text>
<text x="722" y="716" text-anchor="end" font-size="8.5" font-family="IBM Plex Mono,monospace" fill="#8898b0">VARCHAR(32)</text>
<rect x="492" y="793" width="238" height="168" rx="7" fill="rgba(0,0,0,0.07)"/>
<rect x="490" y="790" width="238" height="168" rx="7" fill="white" stroke="#1a58c0" stroke-width="1.2" stroke-opacity="0.35"/>
<rect x="490" y="790" width="238" height="36" rx="7" fill="#e8eef9"/>
<rect x="490" y="822" width="238" height="4" fill="#e8eef9"/>
<line x1="490" y1="826" x2="728" y2="826" stroke="#1a58c0" stroke-width="0.8" stroke-opacity="0.3"/>
<rect x="500" y="800" width="16" height="16" rx="3" fill="#1a58c0" fill-opacity="0.15"/>
<text x="508" y="811" text-anchor="middle" font-size="8" font-family="IBM Plex Mono,monospace" font-weight="700" fill="#1a58c0">H</text>
<text x="520" y="812" font-size="10.5" font-family="Sora,sans-serif" font-weight="600" fill="#18243a">component_health_snapshot</text>
<text x="724" y="812" text-anchor="end" font-size="8" font-family="IBM Plex Mono,monospace" font-weight="600" fill="#1a58c0" opacity="0.8">PostgreSQL</text>
<rect x="491" y="832" width="236" height="20" fill="#f7f9fc" opacity="0.6"/>
<text x="500" y="846" font-size="9" fill="#c09000">🔑</text>
<text x="514" y="846" font-size="9.5" font-family="IBM Plex Mono,monospace" font-weight="600" fill="#18243a">health_id</text>
<text x="722" y="846" text-anchor="end" font-size="8.5" font-family="IBM Plex Mono,monospace" fill="#8898b0">BIGSERIAL</text>
<text x="500" y="866" font-size="9" fill="#1a58c0">🔗</text>
<text x="514" y="866" font-size="9.5" font-family="IBM Plex Mono,monospace" font-weight="400" fill="#1a58c0">component_id</text>
<text x="722" y="866" text-anchor="end" font-size="8.5" font-family="IBM Plex Mono,monospace" fill="#8898b0">INT FK</text>
<rect x="491" y="872" width="236" height="20" fill="#f7f9fc" opacity="0.6"/>
<text x="500" y="886" font-size="9" fill="#1a58c0">🔗</text>
<text x="514" y="886" font-size="9.5" font-family="IBM Plex Mono,monospace" font-weight="400" fill="#1a58c0">part_uuid</text>
<text x="722" y="886" text-anchor="end" font-size="8.5" font-family="IBM Plex Mono,monospace" fill="#8898b0">UUID FK</text>
<text x="514" y="906" font-size="9.5" font-family="IBM Plex Mono,monospace" font-weight="400" fill="#4a5e78">clogging_score</text>
<text x="722" y="906" text-anchor="end" font-size="8.5" font-family="IBM Plex Mono,monospace" fill="#8898b0">FLOAT4</text>
<rect x="491" y="912" width="236" height="20" fill="#f7f9fc" opacity="0.6"/>
<text x="514" y="926" font-size="9.5" font-family="IBM Plex Mono,monospace" font-weight="400" fill="#4a5e78">estimated_remaining_h</text>
<text x="722" y="926" text-anchor="end" font-size="8.5" font-family="IBM Plex Mono,monospace" fill="#8898b0">FLOAT4</text>
<text x="514" y="946" font-size="9.5" font-family="IBM Plex Mono,monospace" font-weight="400" fill="#4a5e78">efficiency_score</text>
<text x="722" y="946" text-anchor="end" font-size="8.5" font-family="IBM Plex Mono,monospace" fill="#8898b0">FLOAT4</text>
<rect x="912" y="643" width="238" height="168" rx="7" fill="rgba(0,0,0,0.07)"/>
<rect x="910" y="640" width="238" height="168" rx="7" fill="white" stroke="#6030b8" stroke-width="1.2" stroke-opacity="0.35"/>
<rect x="910" y="640" width="238" height="36" rx="7" fill="#f0eafa"/>
<rect x="910" y="672" width="238" height="4" fill="#f0eafa"/>
<line x1="910" y1="676" x2="1148" y2="676" stroke="#6030b8" stroke-width="0.8" stroke-opacity="0.3"/>
<rect x="920" y="650" width="16" height="16" rx="3" fill="#6030b8" fill-opacity="0.15"/>
<text x="928" y="661" text-anchor="middle" font-size="8" font-family="IBM Plex Mono,monospace" font-weight="700" fill="#6030b8">F</text>
<text x="940" y="662" font-size="10.5" font-family="Sora,sans-serif" font-weight="600" fill="#18243a">ml_feature_snapshot</text>
<text x="1144" y="662" text-anchor="end" font-size="8" font-family="IBM Plex Mono,monospace" font-weight="600" fill="#6030b8" opacity="0.8">PostgreSQL</text>
<rect x="911" y="682" width="236" height="20" fill="#f7f9fc" opacity="0.6"/>
<text x="920" y="696" font-size="9" fill="#c09000">🔑</text>
<text x="934" y="696" font-size="9.5" font-family="IBM Plex Mono,monospace" font-weight="600" fill="#18243a">feature_id</text>
<text x="1142" y="696" text-anchor="end" font-size="8.5" font-family="IBM Plex Mono,monospace" fill="#8898b0">UUID</text>
<text x="920" y="716" font-size="9" fill="#6030b8">🔗</text>
<text x="934" y="716" font-size="9.5" font-family="IBM Plex Mono,monospace" font-weight="400" fill="#1a58c0">part_uuid</text>
<text x="1142" y="716" text-anchor="end" font-size="8.5" font-family="IBM Plex Mono,monospace" fill="#8898b0">UUID FK</text>
<rect x="911" y="722" width="236" height="20" fill="#f7f9fc" opacity="0.6"/>
<text x="934" y="736" font-size="9.5" font-family="IBM Plex Mono,monospace" font-weight="400" fill="#4a5e78">feature_version</text>
<text x="1142" y="736" text-anchor="end" font-size="8.5" font-family="IBM Plex Mono,monospace" fill="#8898b0">VARCHAR(16)</text>
<text x="934" y="756" font-size="9.5" font-family="IBM Plex Mono,monospace" font-weight="400" fill="#4a5e78">cycle_time_total_ms</text>
<text x="1142" y="756" text-anchor="end" font-size="8.5" font-family="IBM Plex Mono,monospace" fill="#8898b0">INT</text>
<rect x="911" y="762" width="236" height="20" fill="#f7f9fc" opacity="0.6"/>
<text x="934" y="776" font-size="9.5" font-family="IBM Plex Mono,monospace" font-weight="400" fill="#4a5e78">arm_features</text>
<text x="1142" y="776" text-anchor="end" font-size="8.5" font-family="IBM Plex Mono,monospace" fill="#8898b0">JSONB</text>
<text x="934" y="796" font-size="9.5" font-family="IBM Plex Mono,monospace" font-weight="400" fill="#4a5e78">cross_arm_features</text>
<text x="1142" y="796" text-anchor="end" font-size="8.5" font-family="IBM Plex Mono,monospace" fill="#8898b0">JSONB</text>
<rect x="912" y="933" width="238" height="188" rx="7" fill="rgba(0,0,0,0.07)"/>
<rect x="910" y="930" width="238" height="188" rx="7" fill="white" stroke="#6030b8" stroke-width="1.2" stroke-opacity="0.35"/>
<rect x="910" y="930" width="238" height="36" rx="7" fill="#f0eafa"/>
<rect x="910" y="962" width="238" height="4" fill="#f0eafa"/>
<line x1="910" y1="966" x2="1148" y2="966" stroke="#6030b8" stroke-width="0.8" stroke-opacity="0.3"/>
<rect x="920" y="940" width="16" height="16" rx="3" fill="#6030b8" fill-opacity="0.15"/>
<text x="928" y="951" text-anchor="middle" font-size="8" font-family="IBM Plex Mono,monospace" font-weight="700" fill="#6030b8">M</text>
<text x="940" y="952" font-size="10.5" font-family="Sora,sans-serif" font-weight="600" fill="#18243a">ml_prediction_result</text>
<text x="1144" y="952" text-anchor="end" font-size="8" font-family="IBM Plex Mono,monospace" font-weight="600" fill="#6030b8" opacity="0.8">PostgreSQL</text>
<rect x="911" y="972" width="236" height="20" fill="#f7f9fc" opacity="0.6"/>
<text x="920" y="986" font-size="9" fill="#c09000">🔑</text>
<text x="934" y="986" font-size="9.5" font-family="IBM Plex Mono,monospace" font-weight="600" fill="#18243a">prediction_id</text>
<text x="1142" y="986" text-anchor="end" font-size="8.5" font-family="IBM Plex Mono,monospace" fill="#8898b0">UUID</text>
<text x="920" y="1006" font-size="9" fill="#6030b8">🔗</text>
<text x="934" y="1006" font-size="9.5" font-family="IBM Plex Mono,monospace" font-weight="400" fill="#1a58c0">feature_id</text>
<text x="1142" y="1006" text-anchor="end" font-size="8.5" font-family="IBM Plex Mono,monospace" fill="#8898b0">UUID FK</text>
<rect x="911" y="1012" width="236" height="20" fill="#f7f9fc" opacity="0.6"/>
<text x="934" y="1026" font-size="9.5" font-family="IBM Plex Mono,monospace" font-weight="400" fill="#4a5e78">prediction_type</text>
<text x="1142" y="1026" text-anchor="end" font-size="8.5" font-family="IBM Plex Mono,monospace" fill="#8898b0">ENUM</text>
<text x="934" y="1046" font-size="9.5" font-family="IBM Plex Mono,monospace" font-weight="400" fill="#4a5e78">parts_view</text>
<text x="1142" y="1046" text-anchor="end" font-size="8.5" font-family="IBM Plex Mono,monospace" fill="#8898b0">JSONB</text>
<rect x="911" y="1052" width="236" height="20" fill="#f7f9fc" opacity="0.6"/>
<text x="934" y="1066" font-size="9.5" font-family="IBM Plex Mono,monospace" font-weight="400" fill="#4a5e78">timeline_view</text>
<text x="1142" y="1066" text-anchor="end" font-size="8.5" font-family="IBM Plex Mono,monospace" fill="#8898b0">JSONB</text>
<text x="934" y="1086" font-size="9.5" font-family="IBM Plex Mono,monospace" font-weight="400" fill="#4a5e78">prediction_variant</text>
<text x="1142" y="1086" text-anchor="end" font-size="8.5" font-family="IBM Plex Mono,monospace" fill="#8898b0">ENUM</text>
<text x="934" y="1104" font-size="8.5" font-family="IBM Plex Mono,monospace" fill="#8898b0">+1 more columns…</text>
<rect x="912" y="1223" width="238" height="168" rx="7" fill="rgba(0,0,0,0.07)"/>
<rect x="910" y="1220" width="238" height="168" rx="7" fill="white" stroke="#6030b8" stroke-width="1.2" stroke-opacity="0.35"/>
<rect x="910" y="1220" width="238" height="36" rx="7" fill="#f0eafa"/>
<rect x="910" y="1252" width="238" height="4" fill="#f0eafa"/>
<line x1="910" y1="1256" x2="1148" y2="1256" stroke="#6030b8" stroke-width="0.8" stroke-opacity="0.3"/>
<rect x="920" y="1230" width="16" height="16" rx="3" fill="#6030b8" fill-opacity="0.15"/>
<text x="928" y="1241" text-anchor="middle" font-size="8" font-family="IBM Plex Mono,monospace" font-weight="700" fill="#6030b8">L</text>
<text x="940" y="1242" font-size="10.5" font-family="Sora,sans-serif" font-weight="600" fill="#18243a">ml_inference_log</text>
<text x="1144" y="1242" text-anchor="end" font-size="8" font-family="IBM Plex Mono,monospace" font-weight="600" fill="#6030b8" opacity="0.8">PostgreSQL</text>
<rect x="911" y="1262" width="236" height="20" fill="#f7f9fc" opacity="0.6"/>
<text x="920" y="1276" font-size="9" fill="#c09000">🔑</text>
<text x="934" y="1276" font-size="9.5" font-family="IBM Plex Mono,monospace" font-weight="600" fill="#18243a">inference_id</text>
<text x="1142" y="1276" text-anchor="end" font-size="8.5" font-family="IBM Plex Mono,monospace" fill="#8898b0">UUID</text>
<text x="920" y="1296" font-size="9" fill="#6030b8">🔗</text>
<text x="934" y="1296" font-size="9.5" font-family="IBM Plex Mono,monospace" font-weight="400" fill="#1a58c0">feature_id</text>
<text x="1142" y="1296" text-anchor="end" font-size="8.5" font-family="IBM Plex Mono,monospace" fill="#8898b0">UUID FK</text>
<rect x="911" y="1302" width="236" height="20" fill="#f7f9fc" opacity="0.6"/>
<text x="934" y="1316" font-size="9.5" font-family="IBM Plex Mono,monospace" font-weight="400" fill="#4a5e78">inference_type</text>
<text x="1142" y="1316" text-anchor="end" font-size="8.5" font-family="IBM Plex Mono,monospace" fill="#8898b0">ENUM</text>
<text x="934" y="1336" font-size="9.5" font-family="IBM Plex Mono,monospace" font-weight="400" fill="#4a5e78">model_version</text>
<text x="1142" y="1336" text-anchor="end" font-size="8.5" font-family="IBM Plex Mono,monospace" fill="#8898b0">VARCHAR(32)</text>
<rect x="911" y="1342" width="236" height="20" fill="#f7f9fc" opacity="0.6"/>
<text x="934" y="1356" font-size="9.5" font-family="IBM Plex Mono,monospace" font-weight="400" fill="#4a5e78">latency_ms</text>
<text x="1142" y="1356" text-anchor="end" font-size="8.5" font-family="IBM Plex Mono,monospace" fill="#8898b0">INT</text>
<text x="934" y="1376" font-size="9.5" font-family="IBM Plex Mono,monospace" font-weight="400" fill="#4a5e78">status</text>
<text x="1142" y="1376" text-anchor="end" font-size="8.5" font-family="IBM Plex Mono,monospace" fill="#8898b0">ENUM</text>
<rect x="1382" y="533" width="238" height="188" rx="7" fill="rgba(0,0,0,0.07)"/>
<rect x="1380" y="530" width="238" height="188" rx="7" fill="white" stroke="#b06000" stroke-width="1.2" stroke-opacity="0.35"/>
<rect x="1380" y="530" width="238" height="36" rx="7" fill="#faf1e6"/>
<rect x="1380" y="562" width="238" height="4" fill="#faf1e6"/>
<line x1="1380" y1="566" x2="1618" y2="566" stroke="#b06000" stroke-width="0.8" stroke-opacity="0.3"/>
<rect x="1390" y="540" width="16" height="16" rx="3" fill="#b06000" fill-opacity="0.15"/>
<text x="1398" y="551" text-anchor="middle" font-size="8" font-family="IBM Plex Mono,monospace" font-weight="700" fill="#b06000">O</text>
<text x="1410" y="552" font-size="10.5" font-family="Sora,sans-serif" font-weight="600" fill="#18243a">omniverse_sync_log</text>
<text x="1614" y="552" text-anchor="end" font-size="8" font-family="IBM Plex Mono,monospace" font-weight="600" fill="#b06000" opacity="0.8">PostgreSQL</text>
<rect x="1381" y="572" width="236" height="20" fill="#f7f9fc" opacity="0.6"/>
<text x="1390" y="586" font-size="9" fill="#c09000">🔑</text>
<text x="1404" y="586" font-size="9.5" font-family="IBM Plex Mono,monospace" font-weight="600" fill="#18243a">sync_id</text>
<text x="1612" y="586" text-anchor="end" font-size="8.5" font-family="IBM Plex Mono,monospace" fill="#8898b0">UUID</text>
<text x="1390" y="606" font-size="9" fill="#b06000">🔗</text>
<text x="1404" y="606" font-size="9.5" font-family="IBM Plex Mono,monospace" font-weight="400" fill="#1a58c0">part_uuid</text>
<text x="1612" y="606" text-anchor="end" font-size="8.5" font-family="IBM Plex Mono,monospace" fill="#8898b0">UUID FK</text>
<rect x="1381" y="612" width="236" height="20" fill="#f7f9fc" opacity="0.6"/>
<text x="1404" y="626" font-size="9.5" font-family="IBM Plex Mono,monospace" font-weight="400" fill="#4a5e78">direction</text>
<text x="1612" y="626" text-anchor="end" font-size="8.5" font-family="IBM Plex Mono,monospace" fill="#8898b0">ENUM</text>
<text x="1404" y="646" font-size="9.5" font-family="IBM Plex Mono,monospace" font-weight="400" fill="#4a5e78">request_type</text>
<text x="1612" y="646" text-anchor="end" font-size="8.5" font-family="IBM Plex Mono,monospace" fill="#8898b0">VARCHAR(64)</text>
<rect x="1381" y="652" width="236" height="20" fill="#f7f9fc" opacity="0.6"/>
<text x="1404" y="666" font-size="9.5" font-family="IBM Plex Mono,monospace" font-weight="400" fill="#4a5e78">status</text>
<text x="1612" y="666" text-anchor="end" font-size="8.5" font-family="IBM Plex Mono,monospace" fill="#8898b0">ENUM</text>
<text x="1404" y="686" font-size="9.5" font-family="IBM Plex Mono,monospace" font-weight="400" fill="#4a5e78">iteration_no</text>
<text x="1612" y="686" text-anchor="end" font-size="8.5" font-family="IBM Plex Mono,monospace" fill="#8898b0">INT</text>
<text x="1404" y="704" font-size="8.5" font-family="IBM Plex Mono,monospace" fill="#8898b0">+1 more columns…</text>
<rect x="1382" y="903" width="238" height="188" rx="7" fill="rgba(0,0,0,0.07)"/>
<rect x="1380" y="900" width="238" height="188" rx="7" fill="white" stroke="#b06000" stroke-width="1.2" stroke-opacity="0.35"/>
<rect x="1380" y="900" width="238" height="36" rx="7" fill="#faf1e6"/>
<rect x="1380" y="932" width="238" height="4" fill="#faf1e6"/>
<line x1="1380" y1="936" x2="1618" y2="936" stroke="#b06000" stroke-width="0.8" stroke-opacity="0.3"/>
<rect x="1390" y="910" width="16" height="16" rx="3" fill="#b06000" fill-opacity="0.15"/>
<text x="1398" y="921" text-anchor="middle" font-size="8" font-family="IBM Plex Mono,monospace" font-weight="700" fill="#b06000">T</text>
<text x="1410" y="922" font-size="10.5" font-family="Sora,sans-serif" font-weight="600" fill="#18243a">trajectory_optimization_result</text>
<text x="1614" y="922" text-anchor="end" font-size="8" font-family="IBM Plex Mono,monospace" font-weight="600" fill="#b06000" opacity="0.8">PostgreSQL</text>
<rect x="1381" y="942" width="236" height="20" fill="#f7f9fc" opacity="0.6"/>
<text x="1390" y="956" font-size="9" fill="#c09000">🔑</text>
<text x="1404" y="956" font-size="9.5" font-family="IBM Plex Mono,monospace" font-weight="600" fill="#18243a">optimization_id</text>
<text x="1612" y="956" text-anchor="end" font-size="8.5" font-family="IBM Plex Mono,monospace" fill="#8898b0">UUID</text>
<text x="1390" y="976" font-size="9" fill="#b06000">🔗</text>
<text x="1404" y="976" font-size="9.5" font-family="IBM Plex Mono,monospace" font-weight="400" fill="#1a58c0">sync_id</text>
<text x="1612" y="976" text-anchor="end" font-size="8.5" font-family="IBM Plex Mono,monospace" fill="#8898b0">UUID FK</text>
<rect x="1381" y="982" width="236" height="20" fill="#f7f9fc" opacity="0.6"/>
<text x="1390" y="996" font-size="9" fill="#b06000">🔗</text>
<text x="1404" y="996" font-size="9.5" font-family="IBM Plex Mono,monospace" font-weight="400" fill="#1a58c0">feature_id</text>
<text x="1612" y="996" text-anchor="end" font-size="8.5" font-family="IBM Plex Mono,monospace" fill="#8898b0">UUID FK</text>
<text x="1404" y="1016" font-size="9.5" font-family="IBM Plex Mono,monospace" font-weight="400" fill="#4a5e78">optimized_trajectory</text>
<text x="1612" y="1016" text-anchor="end" font-size="8.5" font-family="IBM Plex Mono,monospace" fill="#8898b0">JSONB</text>
<rect x="1381" y="1022" width="236" height="20" fill="#f7f9fc" opacity="0.6"/>
<text x="1404" y="1036" font-size="9.5" font-family="IBM Plex Mono,monospace" font-weight="400" fill="#4a5e78">estimated_qc_gain</text>
<text x="1612" y="1036" text-anchor="end" font-size="8.5" font-family="IBM Plex Mono,monospace" fill="#8898b0">FLOAT4</text>
<text x="1404" y="1056" font-size="9.5" font-family="IBM Plex Mono,monospace" font-weight="400" fill="#4a5e78">collision_free</text>
<text x="1612" y="1056" text-anchor="end" font-size="8.5" font-family="IBM Plex Mono,monospace" fill="#8898b0">BOOLEAN</text>
<text x="1404" y="1074" font-size="8.5" font-family="IBM Plex Mono,monospace" fill="#8898b0">+1 more columns…</text>
<rect x="1382" y="178" width="238" height="188" rx="7" fill="rgba(0,0,0,0.07)"/>
<rect x="1380" y="175" width="238" height="188" rx="7" fill="white" stroke="#b52030" stroke-width="1.2" stroke-opacity="0.35"/>
<rect x="1380" y="175" width="238" height="36" rx="7" fill="#faeaec"/>
<rect x="1380" y="207" width="238" height="4" fill="#faeaec"/>
<line x1="1380" y1="211" x2="1618" y2="211" stroke="#b52030" stroke-width="0.8" stroke-opacity="0.3"/>
<rect x="1390" y="185" width="16" height="16" rx="3" fill="#b52030" fill-opacity="0.15"/>
<text x="1398" y="196" text-anchor="middle" font-size="8" font-family="IBM Plex Mono,monospace" font-weight="700" fill="#b52030">!</text>
<text x="1410" y="197" font-size="10.5" font-family="Sora,sans-serif" font-weight="600" fill="#18243a">alert_log</text>
<text x="1614" y="197" text-anchor="end" font-size="8" font-family="IBM Plex Mono,monospace" font-weight="600" fill="#b52030" opacity="0.8">PostgreSQL</text>
<rect x="1381" y="217" width="236" height="20" fill="#f7f9fc" opacity="0.6"/>
<text x="1390" y="231" font-size="9" fill="#c09000">🔑</text>
<text x="1404" y="231" font-size="9.5" font-family="IBM Plex Mono,monospace" font-weight="600" fill="#18243a">alert_id</text>
<text x="1612" y="231" text-anchor="end" font-size="8.5" font-family="IBM Plex Mono,monospace" fill="#8898b0">UUID</text>
<text x="1404" y="251" font-size="9.5" font-family="IBM Plex Mono,monospace" font-weight="400" fill="#4a5e78">alert_type</text>
<text x="1612" y="251" text-anchor="end" font-size="8.5" font-family="IBM Plex Mono,monospace" fill="#8898b0">ENUM</text>
<rect x="1381" y="257" width="236" height="20" fill="#f7f9fc" opacity="0.6"/>
<text x="1404" y="271" font-size="9.5" font-family="IBM Plex Mono,monospace" font-weight="400" fill="#4a5e78">severity</text>
<text x="1612" y="271" text-anchor="end" font-size="8.5" font-family="IBM Plex Mono,monospace" fill="#8898b0">ENUM</text>
<text x="1390" y="291" font-size="9" fill="#b52030">🔗</text>
<text x="1404" y="291" font-size="9.5" font-family="IBM Plex Mono,monospace" font-weight="400" fill="#1a58c0">source_component_id</text>
<text x="1612" y="291" text-anchor="end" font-size="8.5" font-family="IBM Plex Mono,monospace" fill="#8898b0">INT FK</text>
<rect x="1381" y="297" width="236" height="20" fill="#f7f9fc" opacity="0.6"/>
<text x="1390" y="311" font-size="9" fill="#b52030">🔗</text>
<text x="1404" y="311" font-size="9.5" font-family="IBM Plex Mono,monospace" font-weight="400" fill="#1a58c0">source_prediction_id</text>
<text x="1612" y="311" text-anchor="end" font-size="8.5" font-family="IBM Plex Mono,monospace" fill="#8898b0">UUID FK</text>
<text x="1404" y="331" font-size="9.5" font-family="IBM Plex Mono,monospace" font-weight="400" fill="#4a5e78">message</text>
<text x="1612" y="331" text-anchor="end" font-size="8.5" font-family="IBM Plex Mono,monospace" fill="#8898b0">TEXT</text>
<text x="1404" y="349" font-size="8.5" font-family="IBM Plex Mono,monospace" fill="#8898b0">+1 more columns…</text>
</g>
<rect x="12" y="1506" width="560" height="28" rx="5" fill="white" stroke="#d4dbe8" stroke-width="0.8" opacity="0.9"/>
<rect x="18" y="1516" width="10" height="10" rx="2" fill="#0077bb"/>
<text x="31" y="1525" font-size="9" font-family="IBM Plex Mono,monospace" fill="#4a5e78">Timescale</text>
<rect x="108" y="1516" width="10" height="10" rx="2" fill="#087878"/>
<text x="121" y="1525" font-size="9" font-family="IBM Plex Mono,monospace" fill="#4a5e78">Config</text>
<rect x="198" y="1516" width="10" height="10" rx="2" fill="#1a58c0"/>
<text x="211" y="1525" font-size="9" font-family="IBM Plex Mono,monospace" fill="#4a5e78">Prod</text>
<rect x="288" y="1516" width="10" height="10" rx="2" fill="#6030b8"/>
<text x="301" y="1525" font-size="9" font-family="IBM Plex Mono,monospace" fill="#4a5e78">Ml</text>
<rect x="378" y="1516" width="10" height="10" rx="2" fill="#b06000"/>
<text x="391" y="1525" font-size="9" font-family="IBM Plex Mono,monospace" fill="#4a5e78">Omni</text>
<rect x="468" y="1516" width="10" height="10" rx="2" fill="#b52030"/>
<text x="481" y="1525" font-size="9" font-family="IBM Plex Mono,monospace" fill="#4a5e78">Alert</text>
<text x="1764" y="1542" text-anchor="end" font-size="9" font-family="IBM Plex Mono,monospace" fill="#8898b0">Digital Twin · DB ER Model · 14 tables</text>
</svg>